<mxfile host="Electron" agent="Mozilla/5.0 (Windows NT 10.0; Win64; x64) AppleWebKit/537.36 (KHTML, like Gecko) draw.io/26.0.4 Chrome/128.0.6613.186 Electron/32.2.5 Safari/537.36" version="26.0.4" pages="2">
  <diagram name="Main" id="xT2EWyWm9MXj7rOukKl2">
    <mxGraphModel dx="819" dy="478" grid="1" gridSize="10" guides="1" tooltips="1" connect="1" arrows="1" fold="1" page="1" pageScale="1" pageWidth="827" pageHeight="1169" math="0" shadow="0">
      <root>
        <mxCell id="0" />
        <mxCell id="1" parent="0" />
        <mxCell id="U7gqkI4tM9gZQAgdwT1p-1" value="" style="rounded=0;whiteSpace=wrap;html=1;fillColor=#ffecf1;strokeColor=#ff8987;dashed=1;" vertex="1" parent="1">
          <mxGeometry x="169" y="157.5" width="489.5" height="55" as="geometry" />
        </mxCell>
        <mxCell id="U7gqkI4tM9gZQAgdwT1p-2" value="" style="rounded=0;whiteSpace=wrap;html=1;fillColor=#f0fff5;strokeColor=#3ce4bb;dashed=1;" vertex="1" parent="1">
          <mxGeometry x="169" y="347.5" width="489.5" height="87.5" as="geometry" />
        </mxCell>
        <mxCell id="U7gqkI4tM9gZQAgdwT1p-3" value="" style="rounded=0;whiteSpace=wrap;html=1;fillColor=#fff9e7;strokeColor=#ffcd5a;dashed=1;" vertex="1" parent="1">
          <mxGeometry x="169" y="445" width="489.5" height="55" as="geometry" />
        </mxCell>
        <mxCell id="U7gqkI4tM9gZQAgdwT1p-4" value="" style="rounded=0;whiteSpace=wrap;html=1;fillColor=#ddf7f9;strokeColor=#34d7e4;dashed=1;" vertex="1" parent="1">
          <mxGeometry x="169" y="282.5" width="489.5" height="55" as="geometry" />
        </mxCell>
        <mxCell id="U7gqkI4tM9gZQAgdwT1p-5" value="" style="rounded=0;whiteSpace=wrap;html=1;fillColor=#ffe9e0;strokeColor=#ffb076;dashed=1;" vertex="1" parent="1">
          <mxGeometry x="169" y="220" width="489.5" height="55" as="geometry" />
        </mxCell>
        <mxCell id="U7gqkI4tM9gZQAgdwT1p-6" value="" style="rounded=0;whiteSpace=wrap;html=1;fillColor=#e7e7ff;strokeColor=#6666ff;dashed=1;" vertex="1" parent="1">
          <mxGeometry x="169" y="60" width="489.5" height="90" as="geometry" />
        </mxCell>
        <mxCell id="U7gqkI4tM9gZQAgdwT1p-7" value="Bili数据中心-WebUI" style="rounded=1;whiteSpace=wrap;html=1;" vertex="1" parent="1">
          <mxGeometry x="181.5" y="70" width="177" height="30" as="geometry" />
        </mxCell>
        <mxCell id="U7gqkI4tM9gZQAgdwT1p-8" value="API网关" style="rounded=1;whiteSpace=wrap;html=1;" vertex="1" parent="1">
          <mxGeometry x="181.5" y="110" width="377" height="30" as="geometry" />
        </mxCell>
        <mxCell id="U7gqkI4tM9gZQAgdwT1p-9" value="请求代理服务" style="rounded=1;whiteSpace=wrap;html=1;" vertex="1" parent="1">
          <mxGeometry x="181.5" y="230" width="120" height="30" as="geometry" />
        </mxCell>
        <mxCell id="U7gqkI4tM9gZQAgdwT1p-10" value="数据中心服务" style="rounded=1;whiteSpace=wrap;html=1;" vertex="1" parent="1">
          <mxGeometry x="308.5" y="230" width="120" height="30" as="geometry" />
        </mxCell>
        <mxCell id="U7gqkI4tM9gZQAgdwT1p-11" value="BFF中间层" style="rounded=1;whiteSpace=wrap;html=1;" vertex="1" parent="1">
          <mxGeometry x="438.5" y="230" width="120" height="30" as="geometry" />
        </mxCell>
        <mxCell id="U7gqkI4tM9gZQAgdwT1p-12" value="消息队列系统NATS" style="rounded=1;whiteSpace=wrap;html=1;arcSize=15;" vertex="1" parent="1">
          <mxGeometry x="367" y="295" width="190" height="30" as="geometry" />
        </mxCell>
        <mxCell id="U7gqkI4tM9gZQAgdwT1p-13" value="时序数据库TimeScaleDB" style="rounded=1;whiteSpace=wrap;html=1;" vertex="1" parent="1">
          <mxGeometry x="180" y="295" width="177" height="30" as="geometry" />
        </mxCell>
        <mxCell id="U7gqkI4tM9gZQAgdwT1p-14" value="请求代理客户端" style="rounded=1;whiteSpace=wrap;html=1;" vertex="1" parent="1">
          <mxGeometry x="180" y="457.5" width="120" height="30" as="geometry" />
        </mxCell>
        <mxCell id="U7gqkI4tM9gZQAgdwT1p-15" value="数据收集服务" style="rounded=1;whiteSpace=wrap;html=1;" vertex="1" parent="1">
          <mxGeometry x="307" y="457.5" width="120" height="30" as="geometry" />
        </mxCell>
        <mxCell id="U7gqkI4tM9gZQAgdwT1p-16" value="系统服务遥测" style="rounded=1;whiteSpace=wrap;html=1;" vertex="1" parent="1">
          <mxGeometry x="437" y="457.5" width="120" height="30" as="geometry" />
        </mxCell>
        <mxCell id="U7gqkI4tM9gZQAgdwT1p-17" value="前端" style="text;html=1;strokeColor=none;fillColor=none;align=center;verticalAlign=middle;whiteSpace=wrap;rounded=0;" vertex="1" parent="1">
          <mxGeometry x="578.5" y="95" width="60" height="30" as="geometry" />
        </mxCell>
        <mxCell id="U7gqkI4tM9gZQAgdwT1p-18" value="前端微服务层" style="text;html=1;strokeColor=none;fillColor=none;align=center;verticalAlign=middle;whiteSpace=wrap;rounded=0;" vertex="1" parent="1">
          <mxGeometry x="568.5" y="232.5" width="80" height="30" as="geometry" />
        </mxCell>
        <mxCell id="U7gqkI4tM9gZQAgdwT1p-19" value="存储与通讯" style="text;html=1;strokeColor=none;fillColor=none;align=center;verticalAlign=middle;whiteSpace=wrap;rounded=0;" vertex="1" parent="1">
          <mxGeometry x="568.5" y="295" width="80" height="30" as="geometry" />
        </mxCell>
        <mxCell id="U7gqkI4tM9gZQAgdwT1p-20" value="后端微服务层" style="text;html=1;strokeColor=none;fillColor=none;align=center;verticalAlign=middle;whiteSpace=wrap;rounded=0;" vertex="1" parent="1">
          <mxGeometry x="568.5" y="458" width="80" height="30" as="geometry" />
        </mxCell>
        <mxCell id="U7gqkI4tM9gZQAgdwT1p-21" value="语音识别Whisper" style="rounded=1;whiteSpace=wrap;html=1;" vertex="1" parent="1">
          <mxGeometry x="181.5" y="360" width="178.5" height="30" as="geometry" />
        </mxCell>
        <mxCell id="U7gqkI4tM9gZQAgdwT1p-22" value="视频归档计划" style="rounded=1;whiteSpace=wrap;html=1;" vertex="1" parent="1">
          <mxGeometry x="181.5" y="395" width="178.5" height="30" as="geometry" />
        </mxCell>
        <mxCell id="U7gqkI4tM9gZQAgdwT1p-23" value="搜索引擎MeiliSearch" style="rounded=1;whiteSpace=wrap;html=1;" vertex="1" parent="1">
          <mxGeometry x="370" y="360" width="188.5" height="30" as="geometry" />
        </mxCell>
        <mxCell id="U7gqkI4tM9gZQAgdwT1p-24" value="数据计算服务" style="rounded=1;whiteSpace=wrap;html=1;" vertex="1" parent="1">
          <mxGeometry x="370" y="395" width="188.5" height="30" as="geometry" />
        </mxCell>
        <mxCell id="U7gqkI4tM9gZQAgdwT1p-25" value="Bili数据中心-WebViewApp" style="rounded=1;whiteSpace=wrap;html=1;" vertex="1" parent="1">
          <mxGeometry x="368.5" y="70" width="188.5" height="30" as="geometry" />
        </mxCell>
        <mxCell id="U7gqkI4tM9gZQAgdwT1p-26" value="生态系统" style="text;html=1;strokeColor=none;fillColor=none;align=center;verticalAlign=middle;whiteSpace=wrap;rounded=0;" vertex="1" parent="1">
          <mxGeometry x="568.5" y="376.25" width="80" height="30" as="geometry" />
        </mxCell>
        <mxCell id="U7gqkI4tM9gZQAgdwT1p-27" value="HTTP/JSON" style="rounded=1;whiteSpace=wrap;html=1;" vertex="1" parent="1">
          <mxGeometry x="181.5" y="170" width="247" height="30" as="geometry" />
        </mxCell>
        <mxCell id="U7gqkI4tM9gZQAgdwT1p-28" value="" style="endArrow=classic;startArrow=classic;html=1;rounded=0;exitX=0.25;exitY=1;exitDx=0;exitDy=0;strokeColor=#999999;" edge="1" parent="1" source="U7gqkI4tM9gZQAgdwT1p-27">
          <mxGeometry width="50" height="50" relative="1" as="geometry">
            <mxPoint x="118.5" y="230" as="sourcePoint" />
            <mxPoint x="243.5" y="230" as="targetPoint" />
          </mxGeometry>
        </mxCell>
        <mxCell id="U7gqkI4tM9gZQAgdwT1p-29" value="" style="endArrow=classic;startArrow=classic;html=1;rounded=0;exitX=0.75;exitY=1;exitDx=0;exitDy=0;strokeColor=#999999;" edge="1" parent="1" source="U7gqkI4tM9gZQAgdwT1p-27">
          <mxGeometry width="50" height="50" relative="1" as="geometry">
            <mxPoint x="88.5" y="280" as="sourcePoint" />
            <mxPoint x="366.5" y="230" as="targetPoint" />
          </mxGeometry>
        </mxCell>
        <mxCell id="U7gqkI4tM9gZQAgdwT1p-30" value="" style="endArrow=classic;startArrow=classic;html=1;rounded=0;exitX=0.5;exitY=0;exitDx=0;exitDy=0;entryX=0.328;entryY=0.987;entryDx=0;entryDy=0;entryPerimeter=0;strokeColor=#999999;fontColor=#000000;" edge="1" parent="1" source="U7gqkI4tM9gZQAgdwT1p-27" target="U7gqkI4tM9gZQAgdwT1p-8">
          <mxGeometry width="50" height="50" relative="1" as="geometry">
            <mxPoint x="138.5" y="220" as="sourcePoint" />
            <mxPoint x="188.5" y="170" as="targetPoint" />
          </mxGeometry>
        </mxCell>
        <mxCell id="U7gqkI4tM9gZQAgdwT1p-31" value="Websocket/ProtoBuf" style="rounded=1;whiteSpace=wrap;html=1;" vertex="1" parent="1">
          <mxGeometry x="437" y="170" width="120" height="30" as="geometry" />
        </mxCell>
        <mxCell id="U7gqkI4tM9gZQAgdwT1p-32" value="应用层协议&lt;br&gt;与数据格式" style="text;html=1;strokeColor=none;fillColor=none;align=center;verticalAlign=middle;whiteSpace=wrap;rounded=0;" vertex="1" parent="1">
          <mxGeometry x="568.5" y="170" width="80" height="30" as="geometry" />
        </mxCell>
        <mxCell id="U7gqkI4tM9gZQAgdwT1p-33" value="" style="endArrow=classic;startArrow=classic;html=1;rounded=0;exitX=0.5;exitY=0;exitDx=0;exitDy=0;entryX=0.836;entryY=0.959;entryDx=0;entryDy=0;entryPerimeter=0;strokeColor=#999999;" edge="1" parent="1" source="U7gqkI4tM9gZQAgdwT1p-31" target="U7gqkI4tM9gZQAgdwT1p-8">
          <mxGeometry width="50" height="50" relative="1" as="geometry">
            <mxPoint x="688.5" y="170" as="sourcePoint" />
            <mxPoint x="688.5" y="120" as="targetPoint" />
          </mxGeometry>
        </mxCell>
        <mxCell id="U7gqkI4tM9gZQAgdwT1p-34" value="" style="endArrow=classic;startArrow=classic;html=1;rounded=0;exitX=0.5;exitY=0;exitDx=0;exitDy=0;strokeColor=#999999;" edge="1" parent="1" source="U7gqkI4tM9gZQAgdwT1p-11">
          <mxGeometry width="50" height="50" relative="1" as="geometry">
            <mxPoint x="688.5" y="170" as="sourcePoint" />
            <mxPoint x="498.5" y="200" as="targetPoint" />
          </mxGeometry>
        </mxCell>
      </root>
    </mxGraphModel>
  </diagram>
  <diagram id="SKCQztCh2i1zQZCfUlJ1" name="io-blive-damaku">
    <mxGraphModel dx="1195" dy="697" grid="1" gridSize="10" guides="1" tooltips="1" connect="1" arrows="1" fold="1" page="1" pageScale="1" pageWidth="827" pageHeight="1169" background="none" math="0" shadow="0">
      <root>
        <mxCell id="0" />
        <mxCell id="1" parent="0" />
        <mxCell id="V_1HUPMDP4IkT2V314-I-35" value="" style="rounded=1;whiteSpace=wrap;html=1;fillColor=#f8cecc;strokeColor=#b85450;movable=1;resizable=1;rotatable=1;deletable=1;editable=1;locked=0;connectable=1;" parent="1" vertex="1">
          <mxGeometry x="510" y="50" width="450" height="420" as="geometry" />
        </mxCell>
        <mxCell id="V_1HUPMDP4IkT2V314-I-28" value="" style="rounded=1;whiteSpace=wrap;html=1;" parent="1" vertex="1">
          <mxGeometry x="540" y="150" width="140" height="120" as="geometry" />
        </mxCell>
        <mxCell id="V_1HUPMDP4IkT2V314-I-14" value="" style="rounded=1;whiteSpace=wrap;html=1;fillColor=#e1d5e7;strokeColor=#9673a6;" parent="1" vertex="1">
          <mxGeometry x="422" y="50" width="66" height="420" as="geometry" />
        </mxCell>
        <mxCell id="V_1HUPMDP4IkT2V314-I-5" value="" style="rounded=1;whiteSpace=wrap;html=1;fillColor=#dae8fc;strokeColor=#6c8ebf;" parent="1" vertex="1">
          <mxGeometry x="230" y="50" width="180" height="210" as="geometry" />
        </mxCell>
        <mxCell id="V_1HUPMDP4IkT2V314-I-1" value="WsAgent&lt;div&gt;WS弹幕客户端&lt;/div&gt;" style="rounded=1;whiteSpace=wrap;html=1;fontSize=15;" parent="1" vertex="1">
          <mxGeometry x="260" y="80" width="120" height="60" as="geometry" />
        </mxCell>
        <mxCell id="V_1HUPMDP4IkT2V314-I-2" value="&lt;font style=&quot;font-size: 15px;&quot;&gt;Blive Source&lt;/font&gt;&lt;div&gt;&lt;font style=&quot;font-size: 15px;&quot;&gt;弹幕服务&lt;/font&gt;&lt;/div&gt;" style="rounded=1;whiteSpace=wrap;html=1;" parent="1" vertex="1">
          <mxGeometry x="80" y="80" width="120" height="200" as="geometry" />
        </mxCell>
        <mxCell id="V_1HUPMDP4IkT2V314-I-3" value="WsAgent&lt;div&gt;WS弹幕客户端&lt;/div&gt;" style="rounded=1;whiteSpace=wrap;html=1;fontSize=15;" parent="1" vertex="1">
          <mxGeometry x="260" y="160" width="120" height="60" as="geometry" />
        </mxCell>
        <mxCell id="V_1HUPMDP4IkT2V314-I-4" value="FileAgent&lt;div&gt;离线数据客户端&lt;/div&gt;" style="rounded=1;whiteSpace=wrap;html=1;fontSize=15;" parent="1" vertex="1">
          <mxGeometry x="260" y="350" width="120" height="50" as="geometry" />
        </mxCell>
        <mxCell id="V_1HUPMDP4IkT2V314-I-6" value="异地多活" style="text;html=1;align=center;verticalAlign=middle;whiteSpace=wrap;rounded=0;fontSize=20;" parent="1" vertex="1">
          <mxGeometry x="270" y="230" width="100" height="30" as="geometry" />
        </mxCell>
        <mxCell id="V_1HUPMDP4IkT2V314-I-7" value="Duplicate Window&lt;div&gt;10Min&lt;/div&gt;" style="rounded=1;whiteSpace=wrap;html=1;fontSize=15;" parent="1" vertex="1">
          <mxGeometry x="550" y="160" width="120" height="60" as="geometry" />
        </mxCell>
        <mxCell id="V_1HUPMDP4IkT2V314-I-11" value="" style="endArrow=none;html=1;rounded=0;exitX=1;exitY=0.5;exitDx=0;exitDy=0;" parent="1" source="V_1HUPMDP4IkT2V314-I-1" edge="1">
          <mxGeometry width="50" height="50" relative="1" as="geometry">
            <mxPoint x="385" y="110" as="sourcePoint" />
            <mxPoint x="550" y="190" as="targetPoint" />
            <Array as="points">
              <mxPoint x="455" y="110" />
              <mxPoint x="455" y="190" />
            </Array>
          </mxGeometry>
        </mxCell>
        <mxCell id="V_1HUPMDP4IkT2V314-I-12" value="" style="endArrow=none;html=1;rounded=0;exitX=1;exitY=0.5;exitDx=0;exitDy=0;entryX=0;entryY=0.5;entryDx=0;entryDy=0;" parent="1" source="V_1HUPMDP4IkT2V314-I-3" target="V_1HUPMDP4IkT2V314-I-7" edge="1">
          <mxGeometry width="50" height="50" relative="1" as="geometry">
            <mxPoint x="460" y="340" as="sourcePoint" />
            <mxPoint x="510" y="290" as="targetPoint" />
          </mxGeometry>
        </mxCell>
        <mxCell id="V_1HUPMDP4IkT2V314-I-13" value="" style="endArrow=none;html=1;rounded=0;exitX=1;exitY=0.5;exitDx=0;exitDy=0;entryX=0;entryY=0.5;entryDx=0;entryDy=0;" parent="1" source="V_1HUPMDP4IkT2V314-I-4" target="V_1HUPMDP4IkT2V314-I-7" edge="1">
          <mxGeometry width="50" height="50" relative="1" as="geometry">
            <mxPoint x="460" y="350" as="sourcePoint" />
            <mxPoint x="510" y="300" as="targetPoint" />
          </mxGeometry>
        </mxCell>
        <mxCell id="V_1HUPMDP4IkT2V314-I-15" value="NATS" style="text;html=1;align=center;verticalAlign=middle;whiteSpace=wrap;rounded=0;fontSize=20;" parent="1" vertex="1">
          <mxGeometry x="425" y="435" width="60" height="30" as="geometry" />
        </mxCell>
        <mxCell id="V_1HUPMDP4IkT2V314-I-16" value="" style="endArrow=classic;html=1;rounded=0;exitX=0.996;exitY=0.15;exitDx=0;exitDy=0;exitPerimeter=0;entryX=0;entryY=0.5;entryDx=0;entryDy=0;" parent="1" source="V_1HUPMDP4IkT2V314-I-2" target="V_1HUPMDP4IkT2V314-I-1" edge="1">
          <mxGeometry width="50" height="50" relative="1" as="geometry">
            <mxPoint y="200" as="sourcePoint" />
            <mxPoint x="50" y="150" as="targetPoint" />
          </mxGeometry>
        </mxCell>
        <mxCell id="V_1HUPMDP4IkT2V314-I-17" value="" style="endArrow=classic;html=1;rounded=0;entryX=0;entryY=0.5;entryDx=0;entryDy=0;" parent="1" edge="1">
          <mxGeometry width="50" height="50" relative="1" as="geometry">
            <mxPoint x="200.6" y="190.29" as="sourcePoint" />
            <mxPoint x="260" y="190" as="targetPoint" />
          </mxGeometry>
        </mxCell>
        <mxCell id="V_1HUPMDP4IkT2V314-I-48" style="edgeStyle=orthogonalEdgeStyle;rounded=0;orthogonalLoop=1;jettySize=auto;html=1;entryX=0;entryY=0.5;entryDx=0;entryDy=0;" parent="1" source="V_1HUPMDP4IkT2V314-I-19" target="V_1HUPMDP4IkT2V314-I-47" edge="1">
          <mxGeometry relative="1" as="geometry">
            <Array as="points">
              <mxPoint x="140" y="445" />
            </Array>
          </mxGeometry>
        </mxCell>
        <mxCell id="V_1HUPMDP4IkT2V314-I-19" value="BililiveRecorder&lt;br&gt;&lt;div&gt;&lt;font style=&quot;font-size: 15px;&quot;&gt;录播姬&lt;/font&gt;&lt;/div&gt;" style="rounded=1;whiteSpace=wrap;html=1;" parent="1" vertex="1">
          <mxGeometry x="80" y="350" width="120" height="50" as="geometry" />
        </mxCell>
        <mxCell id="V_1HUPMDP4IkT2V314-I-20" value="DanmakuXML&lt;br&gt;&lt;div&gt;&lt;font style=&quot;font-size: 15px;&quot;&gt;原始弹幕文件&lt;/font&gt;&lt;/div&gt;" style="rounded=1;whiteSpace=wrap;html=1;" parent="1" vertex="1">
          <mxGeometry x="260" y="277" width="120" height="50" as="geometry" />
        </mxCell>
        <mxCell id="V_1HUPMDP4IkT2V314-I-22" value="" style="endArrow=classic;html=1;rounded=0;exitX=0.5;exitY=1;exitDx=0;exitDy=0;entryX=0.5;entryY=0;entryDx=0;entryDy=0;" parent="1" source="V_1HUPMDP4IkT2V314-I-20" target="V_1HUPMDP4IkT2V314-I-4" edge="1">
          <mxGeometry width="50" height="50" relative="1" as="geometry">
            <mxPoint x="200" y="424.8" as="sourcePoint" />
            <mxPoint x="260" y="425" as="targetPoint" />
          </mxGeometry>
        </mxCell>
        <mxCell id="V_1HUPMDP4IkT2V314-I-23" value="" style="endArrow=classic;html=1;rounded=0;exitX=1;exitY=0.5;exitDx=0;exitDy=0;entryX=0;entryY=0.5;entryDx=0;entryDy=0;" parent="1" source="V_1HUPMDP4IkT2V314-I-19" target="V_1HUPMDP4IkT2V314-I-20" edge="1">
          <mxGeometry width="50" height="50" relative="1" as="geometry">
            <mxPoint x="180" y="410" as="sourcePoint" />
            <mxPoint x="230" y="360" as="targetPoint" />
            <Array as="points">
              <mxPoint x="240" y="375" />
              <mxPoint x="240" y="302" />
            </Array>
          </mxGeometry>
        </mxCell>
        <mxCell id="V_1HUPMDP4IkT2V314-I-24" value="" style="endArrow=classic;html=1;rounded=0;exitX=0.5;exitY=1;exitDx=0;exitDy=0;entryX=0.5;entryY=0;entryDx=0;entryDy=0;" parent="1" source="V_1HUPMDP4IkT2V314-I-2" target="V_1HUPMDP4IkT2V314-I-19" edge="1">
          <mxGeometry width="50" height="50" relative="1" as="geometry">
            <mxPoint x="130" y="340" as="sourcePoint" />
            <mxPoint x="180" y="290" as="targetPoint" />
          </mxGeometry>
        </mxCell>
        <mxCell id="V_1HUPMDP4IkT2V314-I-26" value="Realtime" style="text;html=1;align=center;verticalAlign=middle;whiteSpace=wrap;rounded=0;rotation=0;" parent="1" vertex="1">
          <mxGeometry x="425" y="190" width="60" height="30" as="geometry" />
        </mxCell>
        <mxCell id="V_1HUPMDP4IkT2V314-I-27" value="Playback" style="text;html=1;align=center;verticalAlign=middle;whiteSpace=wrap;rounded=0;rotation=311;" parent="1" vertex="1">
          <mxGeometry x="430" y="287" width="60" height="30" as="geometry" />
        </mxCell>
        <mxCell id="V_1HUPMDP4IkT2V314-I-29" value="&lt;span style=&quot;font-size: 15px;&quot;&gt;主备聚合&lt;/span&gt;&lt;div style=&quot;font-size: 15px;&quot;&gt;先到先得&lt;/div&gt;" style="text;html=1;align=center;verticalAlign=middle;whiteSpace=wrap;rounded=0;" parent="1" vertex="1">
          <mxGeometry x="550" y="230" width="120" height="30" as="geometry" />
        </mxCell>
        <mxCell id="V_1HUPMDP4IkT2V314-I-30" value="采集前端" style="shape=partialRectangle;whiteSpace=wrap;html=1;top=0;bottom=0;fillColor=none;fontSize=20;" parent="1" vertex="1">
          <mxGeometry x="80" y="500" width="410" height="60" as="geometry" />
        </mxCell>
        <mxCell id="V_1HUPMDP4IkT2V314-I-34" value="核心服务" style="shape=partialRectangle;whiteSpace=wrap;html=1;top=0;bottom=0;fillColor=none;fontSize=20;" parent="1" vertex="1">
          <mxGeometry x="490" y="500" width="470" height="60" as="geometry" />
        </mxCell>
        <mxCell id="V_1HUPMDP4IkT2V314-I-36" value="Core Service" style="text;html=1;align=center;verticalAlign=middle;whiteSpace=wrap;rounded=0;fontSize=20;" parent="1" vertex="1">
          <mxGeometry x="655" y="435" width="140" height="30" as="geometry" />
        </mxCell>
        <mxCell id="V_1HUPMDP4IkT2V314-I-37" value="Metrics" style="rounded=1;whiteSpace=wrap;html=1;fontSize=20;" parent="1" vertex="1">
          <mxGeometry x="540" y="80" width="390" height="60" as="geometry" />
        </mxCell>
        <mxCell id="V_1HUPMDP4IkT2V314-I-38" value="存储后端" style="shape=partialRectangle;whiteSpace=wrap;html=1;top=0;bottom=0;fillColor=none;fontSize=20;" parent="1" vertex="1">
          <mxGeometry x="960" y="500" width="200" height="60" as="geometry" />
        </mxCell>
        <mxCell id="V_1HUPMDP4IkT2V314-I-39" value="Agent Controller&lt;div&gt;客户端控制器&lt;/div&gt;" style="rounded=1;whiteSpace=wrap;html=1;fontSize=20;" parent="1" vertex="1">
          <mxGeometry x="540" y="300" width="140" height="120" as="geometry" />
        </mxCell>
        <mxCell id="V_1HUPMDP4IkT2V314-I-40" value="Damaku Parser&lt;div&gt;弹幕处理器&lt;/div&gt;" style="rounded=1;whiteSpace=wrap;html=1;fontSize=20;" parent="1" vertex="1">
          <mxGeometry x="687" y="150" width="140" height="120" as="geometry" />
        </mxCell>
        <mxCell id="V_1HUPMDP4IkT2V314-I-47" value="IOBliveRecorder&lt;div&gt;录播姬监视服务&lt;/div&gt;" style="rounded=1;whiteSpace=wrap;html=1;fontSize=15;" parent="1" vertex="1">
          <mxGeometry x="260" y="420" width="120" height="50" as="geometry" />
        </mxCell>
        <mxCell id="V_1HUPMDP4IkT2V314-I-50" style="edgeStyle=orthogonalEdgeStyle;rounded=0;orthogonalLoop=1;jettySize=auto;html=1;entryX=-0.003;entryY=0.473;entryDx=0;entryDy=0;entryPerimeter=0;" parent="1" source="V_1HUPMDP4IkT2V314-I-47" target="V_1HUPMDP4IkT2V314-I-39" edge="1">
          <mxGeometry relative="1" as="geometry">
            <Array as="points">
              <mxPoint x="410" y="445" />
              <mxPoint x="410" y="357" />
            </Array>
          </mxGeometry>
        </mxCell>
        <mxCell id="V_1HUPMDP4IkT2V314-I-51" value="Room&lt;div&gt;Status&lt;/div&gt;" style="text;html=1;align=center;verticalAlign=middle;whiteSpace=wrap;rounded=0;rotation=0;" parent="1" vertex="1">
          <mxGeometry x="425" y="357" width="60" height="30" as="geometry" />
        </mxCell>
        <mxCell id="V_1HUPMDP4IkT2V314-I-52" value="API&lt;div&gt;Plane&lt;/div&gt;&lt;div&gt;控制平面&lt;/div&gt;" style="rounded=1;whiteSpace=wrap;html=1;fontSize=20;" parent="1" vertex="1">
          <mxGeometry x="687" y="300" width="140" height="120" as="geometry" />
        </mxCell>
        <mxCell id="V_1HUPMDP4IkT2V314-I-53" value="Storage Controller&lt;div&gt;存储管理&lt;/div&gt;" style="rounded=1;whiteSpace=wrap;html=1;fontSize=20;" parent="1" vertex="1">
          <mxGeometry x="840" y="150" width="90" height="270" as="geometry" />
        </mxCell>
        <mxCell id="V_1HUPMDP4IkT2V314-I-54" value="TimeScale&lt;div&gt;DB&lt;/div&gt;" style="shape=cylinder3;whiteSpace=wrap;html=1;boundedLbl=1;backgroundOutline=1;size=15;fontSize=20;" parent="1" vertex="1">
          <mxGeometry x="1050" y="140" width="100" height="100" as="geometry" />
        </mxCell>
        <mxCell id="V_1HUPMDP4IkT2V314-I-55" style="edgeStyle=orthogonalEdgeStyle;rounded=0;orthogonalLoop=1;jettySize=auto;html=1;exitX=1;exitY=0.5;exitDx=0;exitDy=0;entryX=0;entryY=0.5;entryDx=0;entryDy=0;entryPerimeter=0;" parent="1" source="V_1HUPMDP4IkT2V314-I-53" target="V_1HUPMDP4IkT2V314-I-54" edge="1">
          <mxGeometry relative="1" as="geometry">
            <Array as="points">
              <mxPoint x="930" y="190" />
            </Array>
          </mxGeometry>
        </mxCell>
        <mxCell id="V_1HUPMDP4IkT2V314-I-56" value="Redis&lt;div&gt;Cache&lt;/div&gt;" style="shape=cylinder3;whiteSpace=wrap;html=1;boundedLbl=1;backgroundOutline=1;size=15;fontSize=20;" parent="1" vertex="1">
          <mxGeometry x="1050" y="257" width="100" height="100" as="geometry" />
        </mxCell>
        <mxCell id="V_1HUPMDP4IkT2V314-I-57" value="LocalFile&lt;div&gt;Cache&lt;/div&gt;" style="shape=cylinder3;whiteSpace=wrap;html=1;boundedLbl=1;backgroundOutline=1;size=15;fontSize=20;" parent="1" vertex="1">
          <mxGeometry x="1050" y="370" width="100" height="100" as="geometry" />
        </mxCell>
        <mxCell id="V_1HUPMDP4IkT2V314-I-60" value="Storage&lt;div&gt;Fallback&lt;/div&gt;" style="text;html=1;align=center;verticalAlign=middle;whiteSpace=wrap;rounded=0;rotation=0;" parent="1" vertex="1">
          <mxGeometry x="970" y="277" width="60" height="30" as="geometry" />
        </mxCell>
        <mxCell id="V_1HUPMDP4IkT2V314-I-61" value="" style="endArrow=classic;html=1;rounded=0;entryX=0;entryY=0.5;entryDx=0;entryDy=0;entryPerimeter=0;" parent="1" target="V_1HUPMDP4IkT2V314-I-56" edge="1">
          <mxGeometry width="50" height="50" relative="1" as="geometry">
            <mxPoint x="930" y="307" as="sourcePoint" />
            <mxPoint x="1010" y="310" as="targetPoint" />
          </mxGeometry>
        </mxCell>
        <mxCell id="V_1HUPMDP4IkT2V314-I-62" value="" style="endArrow=classic;html=1;rounded=0;entryX=0;entryY=0.311;entryDx=0;entryDy=0;entryPerimeter=0;exitX=1.007;exitY=0.93;exitDx=0;exitDy=0;exitPerimeter=0;" parent="1" source="V_1HUPMDP4IkT2V314-I-53" target="V_1HUPMDP4IkT2V314-I-57" edge="1">
          <mxGeometry width="50" height="50" relative="1" as="geometry">
            <mxPoint x="980" y="460" as="sourcePoint" />
            <mxPoint x="1030" y="410" as="targetPoint" />
          </mxGeometry>
        </mxCell>
        <mxCell id="V_1HUPMDP4IkT2V314-I-63" value="Storage&lt;div&gt;Fallback&lt;/div&gt;" style="text;html=1;align=center;verticalAlign=middle;whiteSpace=wrap;rounded=0;rotation=0;" parent="1" vertex="1">
          <mxGeometry x="970" y="370" width="60" height="30" as="geometry" />
        </mxCell>
        <mxCell id="V_1HUPMDP4IkT2V314-I-64" value="" style="endArrow=classic;html=1;rounded=0;entryX=0.991;entryY=0.631;entryDx=0;entryDy=0;entryPerimeter=0;" parent="1" target="V_1HUPMDP4IkT2V314-I-53" edge="1">
          <mxGeometry width="50" height="50" relative="1" as="geometry">
            <mxPoint x="1050" y="320" as="sourcePoint" />
            <mxPoint x="1020" y="320" as="targetPoint" />
          </mxGeometry>
        </mxCell>
        <mxCell id="V_1HUPMDP4IkT2V314-I-65" value="Fallback&lt;div&gt;Replay&lt;/div&gt;" style="text;html=1;align=center;verticalAlign=middle;whiteSpace=wrap;rounded=0;rotation=0;" parent="1" vertex="1">
          <mxGeometry x="970" y="320" width="60" height="30" as="geometry" />
        </mxCell>
        <mxCell id="V_1HUPMDP4IkT2V314-I-66" value="" style="endArrow=classic;html=1;rounded=0;entryX=0.991;entryY=0.631;entryDx=0;entryDy=0;entryPerimeter=0;" parent="1" edge="1">
          <mxGeometry width="50" height="50" relative="1" as="geometry">
            <mxPoint x="1050.81" y="410" as="sourcePoint" />
            <mxPoint x="929.81" y="410" as="targetPoint" />
          </mxGeometry>
        </mxCell>
        <mxCell id="V_1HUPMDP4IkT2V314-I-67" value="Fallback&lt;div&gt;Replay&lt;/div&gt;" style="text;html=1;align=center;verticalAlign=middle;whiteSpace=wrap;rounded=0;rotation=0;" parent="1" vertex="1">
          <mxGeometry x="970.81" y="410" width="60" height="30" as="geometry" />
        </mxCell>
      </root>
    </mxGraphModel>
  </diagram>
</mxfile>
